<?xml version="1.0" encoding="utf-8"?>
<!-- Generator: Adobe Illustrator 16.0.0, SVG Export Plug-In . SVG Version: 6.00 Build 0)  -->
<!DOCTYPE svg PUBLIC "-//W3C//DTD SVG 1.1//EN" "http://www.w3.org/Graphics/SVG/1.1/DTD/svg11.dtd">
<svg version="1.1" id="圖層_1" xmlns="http://www.w3.org/2000/svg" xmlns:xlink="http://www.w3.org/1999/xlink" x="0px" y="0px"
	 width="186.797px" height="79.645px" viewBox="0 0 186.797 79.645" enable-background="new 0 0 186.797 79.645"
	 xml:space="preserve">
<g>
	<path fill-rule="evenodd" clip-rule="evenodd" fill="#8C1C23" d="M30.492,63.615c4.035,3.242,8.295,6.007,13.475,7.157
		c1.705,0.38,3.319,0.644,5.016,0.244c0.654-0.109,1.477,0.385,1.949-0.549c-0.684-0.582-1.297-0.634-1.879,0.085
		c-2.75-0.253-5.456-0.704-8.026-1.767c0.076-0.114,0.153-0.226,0.229-0.341c1.394-0.083,2.628,0.524,3.915,0.904
		c0.946,0.126,1.893,0.252,2.84,0.379c0.027-0.161,0.055-0.321,0.084-0.481c-0.826-0.171-1.65-0.341-2.477-0.511
		c-4.487-1.443-8.721-3.292-11.586-7.501c6.168,4.051,12.552,7.26,20.188,6.308c-0.875,2.011-2.938,0.135-4.253,1.308
		c1.088,0.382,3.066-0.491,2.509,1.824c-0.018,0.067,0.385,0.338,0.598,0.347c2.264,0.11,4.626-0.126,6.414-1.36
		c0.811-0.559,2.484-1.891,1.592-3.716c4.093-1.671,8.074-3.466,11.008-7.018c3.191-3.864,4.31-8.512,5.072-13.229
		c2.303-14.258-6.711-27.037-20.723-30.457c-2.737-0.667-5.299-2.207-8.271-1.959c-4.271,0.357-8.863,0.336-12.141,3.389
		c-1.992,1.854-4.119,2.75-6.494,3.567c-0.701,0.241-1.024,0.688-0.954-0.583c0.067-1.268-0.819-0.549-1.364-0.269
		c-0.416,0.215-0.814,0.895-1.299,0.292c-0.615-0.763,0.325-1.036,0.672-1.381c1.717-1.707,4.313-2.665,4.596-5.578
		c0.021-0.192,0.542-0.35,0.842-0.502c13.427-6.854,26.777-7.038,39.553,1.311c8.316,5.436,13.462,13.346,15.52,23.204
		c0.432,2.068,0.02,4.257,1.014,6.214c0,0.868,0,1.735,0,2.604c-1.137,1.217-0.041,2.835-1.018,4.156
		c-0.305-3.902,0.606-7.915-1.057-12.397c0.041,4.171,0.242,7.669-0.363,11.147C83.107,63.157,74.588,73.02,60.679,77.69
		c-12.896,4.331-24.785,1.253-35.344-7.171c-1.078-0.86-2.143-1.742-3.16-2.674c-0.334-0.305-0.896-0.778-0.407-1.275
		c0.425-0.431,0.917-0.089,1.362,0.259c2.098,1.638,4.271,3.181,6.332,4.865c7.355,6.015,15.893,7.323,25.022,6.273
		c-2.23-0.152-4.533,0.003-6.681-0.502c-18.264-4.291-34.078-16.87-31.613-40.365c0,1.333,0,2.666,0,4
		c0.838-5.656,2.244-11.021,5.537-15.839c-4.481,9.442-5.977,19.032-1.837,28.956c3.909,9.373,14.397,17.706,22.224,17.291
		c-4.722-1.862-8.87-3.991-12.191-7.428C30.114,63.927,30.302,63.771,30.492,63.615z M83.316,50.645
		c-1.289,4.506-3.211,8.628-6.089,12.327c-2.898,3.729-6.28,6.895-10.546,9.57C72.853,71.79,82.38,60.682,83.316,50.645z
		 M79.88,37.706c0.033,1.985-0.587,4.034,0.578,5.908C81.017,41.573,80.896,39.595,79.88,37.706z M45.665,72.768
		c2.364,0.45,4.733,0.594,7.455,0.206C50.423,71.337,48.027,73.373,45.665,72.768z"/>
	<path fill-rule="evenodd" clip-rule="evenodd" fill="#8C1C23" d="M127.572,63.615c4.035,3.242,8.295,6.007,13.475,7.157
		c1.705,0.38,3.318,0.644,5.016,0.244c0.653-0.109,1.477,0.385,1.949-0.549c-0.685-0.582-1.297-0.634-1.881,0.085
		c-2.748-0.253-5.455-0.704-8.025-1.767c0.076-0.114,0.153-0.226,0.229-0.341c1.395-0.083,2.628,0.524,3.915,0.904
		c0.946,0.126,1.894,0.252,2.841,0.379c0.027-0.161,0.055-0.321,0.083-0.481c-0.825-0.171-1.65-0.341-2.476-0.511
		c-4.488-1.443-8.722-3.292-11.586-7.501c6.168,4.051,12.551,7.26,20.187,6.308c-0.874,2.011-2.937,0.135-4.253,1.308
		c1.088,0.382,3.066-0.491,2.51,1.824c-0.018,0.067,0.384,0.338,0.598,0.347c2.264,0.11,4.625-0.126,6.414-1.36
		c0.809-0.559,2.484-1.891,1.591-3.716c4.093-1.671,8.075-3.466,11.009-7.018c3.191-3.864,4.309-8.512,5.07-13.229
		c2.305-14.258-6.709-27.037-20.722-30.457c-2.737-0.667-5.298-2.207-8.271-1.959c-4.272,0.357-8.865,0.336-12.142,3.389
		c-1.991,1.854-4.12,2.75-6.493,3.567c-0.703,0.241-1.025,0.688-0.955-0.583c0.068-1.268-0.819-0.549-1.363-0.269
		c-0.416,0.215-0.815,0.895-1.3,0.292c-0.614-0.763,0.325-1.036,0.673-1.381c1.717-1.707,4.312-2.665,4.596-5.578
		c0.02-0.192,0.541-0.35,0.841-0.502c13.427-6.854,26.777-7.038,39.553,1.311c8.317,5.436,13.462,13.346,15.521,23.204
		c0.432,2.068,0.019,4.257,1.013,6.214c0,0.868,0,1.735,0,2.604c-1.136,1.217-0.041,2.835-1.018,4.156
		c-0.304-3.902,0.606-7.915-1.057-12.397c0.042,4.171,0.242,7.669-0.363,11.147c-2.562,14.701-11.081,24.563-24.989,29.234
		c-12.896,4.331-24.786,1.253-35.344-7.171c-1.079-0.86-2.144-1.742-3.16-2.674c-0.334-0.305-0.897-0.778-0.408-1.275
		c0.426-0.431,0.917-0.089,1.362,0.259c2.099,1.638,4.272,3.181,6.332,4.865c7.356,6.015,15.894,7.323,25.022,6.273
		c-2.23-0.152-4.533,0.003-6.681-0.502c-18.264-4.291-34.078-16.87-31.612-40.365c0,1.333,0,2.666,0,4
		c0.838-5.656,2.244-11.021,5.536-15.839c-4.481,9.442-5.976,19.032-1.837,28.956c3.909,9.373,14.397,17.706,22.225,17.291
		c-4.723-1.862-8.871-3.991-12.191-7.428C127.193,63.927,127.382,63.771,127.572,63.615z M180.395,50.645
		c-1.289,4.506-3.211,8.628-6.089,12.327c-2.898,3.729-6.279,6.895-10.545,9.57C169.933,71.79,179.46,60.682,180.395,50.645z
		 M176.96,37.706c0.033,1.985-0.588,4.034,0.577,5.908C178.097,41.573,177.976,39.595,176.96,37.706z M142.744,72.768
		c2.365,0.45,4.733,0.594,7.455,0.206C147.503,71.337,145.107,73.373,142.744,72.768z"/>
	<g>
		<path d="M8.671,25.931c0.837,0.41,1.256,0.967,1.256,1.669c0,0.143,0,0.355,0,0.64c-0.153,0.475-0.229,1.328-0.229,2.56
			c-0.152,5.452-0.533,9.242-1.143,11.375c-0.458,1.612-0.877,2.418-1.258,2.418c-0.428,0-0.854-0.524-1.281-1.571
			c-0.61-1.221-0.915-2.325-0.915-3.314c0-0.19,0.062-0.516,0.188-0.974c0.375-0.764,0.625-1.736,0.75-2.92
			c0.249-0.915,0.375-2.08,0.375-3.492c0-2.276-0.288-3.91-0.864-4.902c-0.192-0.409-0.289-0.789-0.289-1.14
			c0-0.582,0.329-0.875,0.987-0.875C7.146,25.403,7.954,25.58,8.671,25.931z M24.652,23.347c0,0,0.75,0.489,2.254,1.465
			c0.876,0.671,1.314,1.222,1.314,1.647c0,0.364-0.179,0.91-0.533,1.637c-0.297,0.728-0.444,1.772-0.444,3.135l-0.178,5.181
			c0,2.728-0.355,4.682-1.066,5.863c-0.948,1.545-1.777,2.317-2.487,2.317l-1.44-4.971c0.418,0,0.68-0.475,0.786-1.425
			c0.262-1.629,0.393-4.752,0.393-9.368c0-1.134-0.125-1.88-0.372-2.239c-0.186-0.18-0.496-0.269-0.929-0.269
			c-1.296,0-3.319,0.182-6.068,0.543c-2.475,0.302-4.242,0.604-5.301,0.906c-0.826,0.241-1.434,0.362-1.827,0.362
			c-0.424,0-0.878-0.154-1.362-0.465c-0.424-0.433-0.635-0.836-0.635-1.208c0-0.121,0.299-0.243,0.897-0.366
			c8.29-1.159,13.226-1.982,14.808-2.471c0.683-0.183,1.132-0.275,1.346-0.275C24.37,23.347,24.652,23.347,24.652,23.347z
			 M16.734,9.021c1.522,0.645,2.285,1.342,2.285,2.093c0,0.538-0.111,1.135-0.331,1.791c-0.332,0.956-0.552,2.598-0.662,4.926
			c-0.386,4.718-0.578,13.495-0.578,26.332c0,2.328,0.05,4.776,0.152,7.344c0.101,2.15,0.152,3.882,0.152,5.195
			c0,1.775-0.379,3.416-1.135,4.923c-0.649,1.075-1.217,1.613-1.703,1.613c-0.379,0-0.892-0.725-1.541-2.173
			c-0.541-1.611-0.838-2.847-0.892-3.705c0-0.652,0.193-1.69,0.581-3.115c0.109-0.711,0.275-1.867,0.497-3.47
			c0.497-5.577,0.746-15.427,0.746-29.547c0-3.914-0.083-6.525-0.248-7.831c-0.166-1.246-0.414-2.194-0.744-2.848
			c-0.386-0.475-0.579-0.979-0.579-1.514c0-0.438,0.462-0.658,1.387-0.658C14.938,8.378,15.81,8.593,16.734,9.021z M20.329,39.134
			c0.95,0.325,1.532,0.487,1.743,0.487l1.44,4.971c-0.458,0-0.802-0.252-1.03-0.755c-0.859-1.652-1.746-2.945-2.661-3.881
			c-0.458-0.431-0.688-0.791-0.688-1.078c0-0.154,0.108-0.232,0.325-0.232C19.616,38.646,19.907,38.809,20.329,39.134z
			 M33.271,15.675c0,0,0.689,0.476,2.068,1.427c1.016,0.659,1.524,1.317,1.524,1.977c0,0.473-0.066,0.947-0.197,1.42
			c-0.263,1.42-0.394,2.84-0.394,4.259c-0.132,10.412-0.723,17.392-1.773,20.94c-1.315,4.496-3.221,7.928-5.716,10.293
			c-2.234,1.893-3.811,2.958-4.73,3.194c-0.513,0-0.769-0.092-0.769-0.274l0.858-0.925c2.544-2.672,4.612-6.372,6.202-11.1
			c1.272-4.111,1.908-9.147,1.908-15.11v-4.316c0-2.11-0.072-4.222-0.213-6.333c-0.213-1.172-0.533-2.228-0.958-3.166
			c-0.427-0.703-0.64-1.173-0.64-1.407c0-0.585,0.472-0.878,1.416-0.878C32.799,15.675,33.271,15.675,33.271,15.675z M52.287,14.602
			c1.273,1.025,1.911,1.757,1.911,2.196c0,0.428-0.285,1.211-0.853,2.349c-1.034,2.278-1.861,6.123-2.48,11.533
			c-0.776,6.692-1.164,11.96-1.164,15.804c0,3.677,0.47,6.098,1.412,7.263c0.877,1.165,2.477,1.748,4.797,1.748
			c2.158,0,3.664-0.479,4.521-1.438c1.047-1.216,1.919-4.86,2.618-10.937c0.032-0.641,0.095-0.96,0.19-0.96
			c0.27,0,0.432,0.422,0.486,1.265c0.702,5.318,1.35,8.463,1.946,9.437c0.541,0.908,0.811,1.621,0.811,2.14
			c0,1.077-0.706,2.131-2.119,3.159c-1.766,1.225-4.291,1.837-7.575,1.837c-3.423,0-6.026-0.916-7.81-2.745
			c-1.897-1.831-2.845-5.419-2.845-10.768c0-5.991,0.379-13.73,1.138-23.217c0.19-1.996,0.285-3.494,0.285-4.492
			c0-0.476-0.239-0.714-0.714-0.714c-0.333,0-0.875,0.051-1.625,0.149c-4.749,0.768-7.663,1.151-8.746,1.151
			c-0.728,0-1.382-0.152-1.962-0.457c-0.486-0.254-0.728-0.559-0.728-0.916c0-0.169,0.35-0.317,1.048-0.445
			c1.966-0.253,4.063-0.678,6.292-1.271c2.36-0.678,4.61-1.461,6.751-2.353c1.048-0.423,1.639-0.636,1.77-0.636
			C50.229,13.284,51.111,13.724,52.287,14.602z M37.239,31.563c1.233,0.428,2.437,0.926,3.609,1.493
			c1.541,0.855,2.559,1.638,3.053,2.35c0.37,0.616,0.555,1.305,0.555,2.063c0,0.589-0.146,1.252-0.439,1.989
			c-0.342,0.54-0.781,0.811-1.317,0.811c-0.198,0-0.493-0.167-0.886-0.503c-0.657-0.479-1.477-1.485-2.461-3.018
			c-1.312-1.916-2.296-3.21-2.952-3.881c-0.526-0.479-0.788-0.838-0.788-1.078c0-0.292,0.11-0.439,0.33-0.439
			C36.19,31.349,36.622,31.421,37.239,31.563z"/>
		<path d="M127.672,4.303c2.087,1.579,3.131,2.816,3.131,3.712c0,0.364-0.226,0.879-0.677,1.547
			c-0.602,1.091-1.354,2.426-2.257,4.003c-1.73,3.214-4.287,7.399-7.671,12.553c-4.212,5.822-8.612,10.462-13.2,13.918
			c-4.814,3.579-8.086,5.367-9.815,5.367c-0.439,0-0.659-0.128-0.659-0.385c0-0.179,0.287-0.48,0.862-0.902
			c4.355-3.067,9.327-8.063,14.915-14.98c4.273-5.054,7.724-10.318,10.354-15.793c1.15-2.166,1.726-4.783,1.726-7.853
			c0-1.317,0.401-1.976,1.205-1.976C126.012,3.514,126.708,3.777,127.672,4.303z M153.088,14.187c1.825,1,2.738,1.905,2.738,2.714
			c0,0.715-1.261,1.071-3.783,1.071c-3.417-0.09-7.1-0.135-11.047-0.135c-4.125,0-9.515,0.273-16.171,0.817
			c-4.773,0.272-9.869,1.058-15.288,2.353c-1.533,0.409-2.476,0.613-2.828,0.613c-0.819,0-2.047-0.355-3.684-1.068
			c-1.733-0.76-2.6-1.378-2.6-1.853c0-0.57,0.563-0.902,1.689-0.998c6.028-0.061,10.446-0.37,13.255-0.927
			c5.325-0.68,11.177-1.205,17.556-1.577c6.028-0.555,10.65-1.174,13.87-1.854c1.345-0.247,2.194-0.371,2.545-0.371
			C149.676,12.972,150.926,13.378,153.088,14.187z M118.099,31.646c0.901,0.441,1.353,1.041,1.353,1.797c0,0.152,0,0.38,0,0.685
			c-0.164,0.508-0.245,1.421-0.245,2.738c-0.163,5.829-0.57,9.885-1.223,12.166c-0.49,1.725-0.938,2.586-1.345,2.586
			c-0.46,0-0.919-0.564-1.38-1.691c-0.657-1.315-0.985-2.505-0.985-3.57c0-0.201,0.066-0.546,0.199-1.031
			c0.397-0.809,0.663-1.841,0.796-3.096c0.265-0.971,0.398-2.205,0.398-3.702c0-2.451-0.311-4.211-0.931-5.28
			c-0.207-0.439-0.311-0.848-0.311-1.226c0-0.628,0.354-0.942,1.063-0.942C116.456,31.079,117.326,31.269,118.099,31.646z
			 M142.949,28.663c0,0,0.888,0.533,2.664,1.598c1.035,0.732,1.553,1.332,1.553,1.798c0,0.424-0.224,1.062-0.671,1.911
			c-0.374,0.85-0.56,2.07-0.56,3.663l-0.224,6.052c0,3.185-0.449,5.467-1.344,6.847c-1.195,1.806-2.239,2.708-3.134,2.708
			l-1.702-5.874c0.626,0,1.018-0.56,1.174-1.681c0.391-1.92,0.587-5.601,0.587-11.042c0-1.237-0.147-2.052-0.439-2.442
			c-0.219-0.195-0.586-0.294-1.098-0.294c-2.03,0-5.197,0.225-9.502,0.674c-3.875,0.375-6.644,0.749-8.304,1.123
			c-1.292,0.3-2.245,0.45-2.86,0.45c-0.462,0-0.957-0.169-1.485-0.507c-0.462-0.474-0.694-0.912-0.694-1.317
			c0-0.144,0.439-0.287,1.317-0.431c12.175-1.366,19.423-2.337,21.746-2.912c1.004-0.215,1.663-0.323,1.978-0.323
			C142.616,28.663,142.949,28.663,142.949,28.663z M128.234,21.35c0,0,0.643,0.207,1.929,0.621c1.403,0.473,2.105,1.034,2.105,1.685
			c0,0.163-0.088,0.528-0.263,1.096c-0.469,1.056-0.702,3.003-0.702,5.842l-0.088,21.604c0,2.938-0.205,5.354-0.613,7.249
			c-0.234,2.878-0.644,4.874-1.228,5.99c-0.469,1.057-0.877,1.586-1.228,1.586c-0.176,0-0.468-0.557-0.877-1.669
			c-0.293-1.288-0.439-3.514-0.439-6.676V29.715c0-2.487-0.409-4.56-1.228-6.218c-0.351-0.579-0.526-0.911-0.526-0.994
			c0-0.769,0.321-1.153,0.965-1.153C127.503,21.35,128.234,21.35,128.234,21.35z M136.882,46.789
			c1.444,0.385,2.328,0.576,2.648,0.576l1.702,5.874c-0.634,0-1.11-0.297-1.426-0.892c-1.189-1.953-2.417-3.481-3.683-4.586
			c-0.634-0.509-0.95-0.935-0.95-1.274c0-0.183,0.127-0.274,0.384-0.274C135.798,46.213,136.239,46.405,136.882,46.789z"/>
	</g>
</g>
</svg>
