<?xml version="1.0" encoding="utf-8"?>
<!-- Generator: Adobe Illustrator 16.0.0, SVG Export Plug-In . SVG Version: 6.00 Build 0)  -->
<!DOCTYPE svg PUBLIC "-//W3C//DTD SVG 1.1//EN" "http://www.w3.org/Graphics/SVG/1.1/DTD/svg11.dtd">
<svg version="1.1" id="圖層_1" xmlns="http://www.w3.org/2000/svg" xmlns:xlink="http://www.w3.org/1999/xlink" x="0px" y="0px"
	 width="186.797px" height="83.892px" viewBox="0 0 186.797 83.892" enable-background="new 0 0 186.797 83.892"
	 xml:space="preserve">
<g>
	<path fill-rule="evenodd" clip-rule="evenodd" fill="#8C1C23" d="M30.031,67.862c4.035,3.242,8.295,6.007,13.475,7.157
		c1.705,0.38,3.319,0.644,5.016,0.244c0.654-0.109,1.477,0.385,1.949-0.549c-0.684-0.582-1.297-0.634-1.879,0.085
		c-2.75-0.253-5.456-0.704-8.026-1.767c0.076-0.114,0.153-0.226,0.229-0.341c1.394-0.083,2.628,0.524,3.915,0.904
		c0.946,0.126,1.893,0.252,2.84,0.379c0.027-0.161,0.055-0.321,0.084-0.481c-0.826-0.171-1.65-0.341-2.477-0.511
		c-4.487-1.443-8.721-3.292-11.586-7.501c6.168,4.051,12.552,7.26,20.188,6.308c-0.875,2.011-2.938,0.135-4.253,1.308
		c1.088,0.382,3.066-0.491,2.509,1.824c-0.018,0.067,0.385,0.338,0.598,0.347c2.264,0.11,4.627-0.126,6.414-1.36
		c0.811-0.559,2.484-1.891,1.592-3.716c4.094-1.671,8.074-3.466,11.008-7.018c3.191-3.864,4.311-8.512,5.072-13.229
		c2.302-14.258-6.711-27.037-20.723-30.457c-2.737-0.667-5.299-2.207-8.271-1.959c-4.271,0.357-8.863,0.336-12.141,3.389
		c-1.992,1.854-4.119,2.75-6.494,3.567c-0.701,0.241-1.024,0.688-0.954-0.583c0.067-1.268-0.819-0.549-1.364-0.269
		c-0.416,0.215-0.814,0.895-1.299,0.292c-0.615-0.763,0.325-1.036,0.672-1.381c1.717-1.707,4.313-2.665,4.596-5.578
		c0.021-0.192,0.542-0.35,0.842-0.502c13.427-6.854,26.777-7.038,39.553,1.311c8.316,5.436,13.462,13.346,15.519,23.204
		c0.432,2.068,0.02,4.257,1.014,6.214c0,0.868,0,1.735,0,2.604c-1.137,1.217-0.041,2.835-1.018,4.156
		c-0.305-3.902,0.607-7.915-1.057-12.397c0.041,4.171,0.242,7.669-0.363,11.147c-2.563,14.701-11.08,24.563-24.99,29.234
		c-12.896,4.331-24.785,1.253-35.344-7.171c-1.078-0.86-2.143-1.742-3.16-2.674c-0.334-0.305-0.896-0.778-0.407-1.275
		c0.425-0.431,0.917-0.089,1.362,0.259c2.098,1.638,4.271,3.181,6.332,4.865c7.355,6.015,15.893,7.323,25.023,6.273
		c-2.231-0.152-4.534,0.003-6.682-0.502C29.08,77.422,13.265,64.843,15.73,41.348c0,1.333,0,2.666,0,4
		c0.838-5.656,2.244-11.021,5.537-15.839c-4.481,9.442-5.977,19.032-1.837,28.956c3.909,9.373,14.397,17.706,22.224,17.291
		c-4.722-1.862-8.87-3.991-12.191-7.428C29.653,68.174,29.841,68.018,30.031,67.862z M82.854,54.892
		c-1.289,4.506-3.211,8.628-6.087,12.327c-2.898,3.729-6.281,6.895-10.547,9.57C72.392,76.037,81.919,64.929,82.854,54.892z
		 M79.419,41.953c0.033,1.985-0.586,4.034,0.578,5.908C80.556,45.82,80.435,43.842,79.419,41.953z M45.204,77.015
		c2.364,0.45,4.733,0.594,7.455,0.206C49.962,75.584,47.566,77.62,45.204,77.015z"/>
	<path fill-rule="evenodd" clip-rule="evenodd" fill="#8C1C23" d="M127.11,67.862c4.035,3.242,8.295,6.007,13.475,7.157
		c1.705,0.38,3.318,0.644,5.016,0.244c0.654-0.109,1.477,0.385,1.949-0.549c-0.684-0.582-1.297-0.634-1.881,0.085
		c-2.748-0.253-5.455-0.704-8.025-1.767c0.076-0.114,0.154-0.226,0.229-0.341c1.395-0.083,2.629,0.524,3.916,0.904
		c0.945,0.126,1.893,0.252,2.84,0.379c0.027-0.161,0.055-0.321,0.084-0.481c-0.826-0.171-1.65-0.341-2.477-0.511
		c-4.488-1.443-8.721-3.292-11.586-7.501c6.168,4.051,12.551,7.26,20.188,6.308c-0.875,2.011-2.938,0.135-4.254,1.308
		c1.088,0.382,3.066-0.491,2.51,1.824c-0.018,0.067,0.385,0.338,0.598,0.347c2.264,0.11,4.625-0.126,6.414-1.36
		c0.809-0.559,2.484-1.891,1.592-3.716c4.092-1.671,8.074-3.466,11.008-7.018c3.191-3.864,4.309-8.512,5.07-13.229
		c2.305-14.258-6.709-27.037-20.721-30.457c-2.738-0.667-5.299-2.207-8.271-1.959c-4.271,0.357-8.865,0.336-12.141,3.389
		c-1.992,1.854-4.121,2.75-6.494,3.567c-0.703,0.241-1.025,0.688-0.955-0.583c0.068-1.268-0.818-0.549-1.363-0.269
		c-0.416,0.215-0.814,0.895-1.299,0.292c-0.615-0.763,0.324-1.036,0.672-1.381c1.717-1.707,4.313-2.665,4.596-5.578
		c0.02-0.192,0.541-0.35,0.842-0.502c13.426-6.854,26.777-7.038,39.553,1.311c8.316,5.436,13.461,13.346,15.52,23.204
		c0.432,2.068,0.02,4.257,1.014,6.214c0,0.868,0,1.735,0,2.604c-1.137,1.217-0.041,2.835-1.018,4.156
		c-0.305-3.902,0.605-7.915-1.057-12.397c0.041,4.171,0.242,7.669-0.363,11.147c-2.563,14.701-11.082,24.563-24.99,29.234
		c-12.896,4.331-24.785,1.253-35.344-7.171c-1.078-0.86-2.143-1.742-3.16-2.674c-0.334-0.305-0.896-0.778-0.408-1.275
		c0.426-0.431,0.918-0.089,1.363,0.259c2.098,1.638,4.271,3.181,6.332,4.865c7.355,6.015,15.893,7.323,25.021,6.273
		c-2.23-0.152-4.533,0.003-6.68-0.502c-18.264-4.291-34.078-16.87-31.613-40.365c0,1.333,0,2.666,0,4
		c0.838-5.656,2.244-11.021,5.537-15.839c-4.482,9.442-5.977,19.032-1.838,28.956c3.91,9.373,14.398,17.706,22.225,17.291
		c-4.723-1.862-8.871-3.991-12.191-7.428C126.731,68.174,126.921,68.018,127.11,67.862z M179.935,54.892
		c-1.289,4.506-3.211,8.628-6.09,12.327c-2.898,3.729-6.279,6.895-10.545,9.57C169.472,76.037,178.999,64.929,179.935,54.892z
		 M176.499,41.953c0.033,1.985-0.588,4.034,0.578,5.908C177.636,45.82,177.515,43.842,176.499,41.953z M142.282,77.015
		c2.365,0.45,4.734,0.594,7.455,0.206C147.042,75.584,144.646,77.62,142.282,77.015z"/>
	<g>
		<g>
			<path d="M23.106,11.08c1.959,1.284,2.939,2.398,2.939,3.345c0,0.364-0.306,0.788-0.918,1.274
				c-0.536,0.729-1.109,1.638-1.721,2.729c-2.754,4.977-5.508,9.102-8.263,12.379c-2.219,2.67-4.743,4.976-7.573,6.917
				c-1.913,1.335-3.174,2.002-3.787,2.002c-0.338,0-0.507-0.084-0.507-0.253c0-0.229,0.242-0.512,0.725-0.854
				c2.58-2.504,5.16-5.521,7.74-9.05c2.337-3.188,4.474-6.831,6.409-10.931c1.209-2.504,1.814-4.837,1.814-7.001
				c0-0.912,0.304-1.368,0.912-1.368C21.417,10.27,22.161,10.54,23.106,11.08z M18.485,28.483c1.324,1.704,1.987,2.85,1.987,3.436
				c0,0.258-0.133,0.967-0.399,2.127c-0.32,1.548-0.479,5.446-0.479,11.698l-0.211,10.054c0,1.01-0.293,2.339-0.878,3.985
				c-0.373,1.223-0.798,1.834-1.277,1.834c-0.64,0-1.225-0.688-1.757-2.062c-0.906-2.062-1.357-3.516-1.357-4.361
				c0.07-0.403,0.32-1.31,0.747-2.723c0.997-2.755,1.495-8.636,1.495-17.644c0-2.542-0.403-5.059-1.208-7.549
				c0-0.529,0.371-0.795,1.113-0.795C16.577,26.484,17.319,27.15,18.485,28.483z M40.694,27.147c0.407,0.809,0.612,1.416,0.612,1.82
				c0,0.563-0.235,1.24-0.704,2.028c-3.52,5.974-6.747,10.255-9.68,12.847c-2.112,2.142-4.576,3.945-7.392,5.409
				c-1.174,0.677-2.17,1.015-2.992,1.015c-0.366,0-0.549-0.128-0.549-0.384c3.777-2.687,7.165-5.836,10.162-9.452
				c3.257-3.614,6.188-8.313,8.794-14.098c0.232-0.439,0.437-0.659,0.612-0.659C39.907,25.674,40.286,26.166,40.694,27.147z
				 M55.063,23.454c1.486,0.707,2.229,1.258,2.229,1.655c0,0.618-0.48,1.016-1.441,1.191c-0.595,0.222-1.762,0.332-3.5,0.332
				c-3.556,0-7.31,0.271-11.26,0.812c-5.482,0.834-9.137,1.479-10.963,1.937c-0.593,0.21-1.013,0.313-1.26,0.313
				c-0.453,0-1.291-0.306-2.513-0.918c-0.997-0.481-1.494-0.875-1.494-1.182c0-0.306,0.42-0.502,1.263-0.59
				c3.394-0.469,7.33-1.066,11.806-1.791c6.541-1.237,10.722-2.049,12.542-2.433c0.836-0.213,1.352-0.32,1.549-0.32
				C52.608,22.46,53.622,22.792,55.063,23.454z M39.55,6.216c0,0,0.907,0.527,2.723,1.582c1.374,0.864,2.061,1.728,2.061,2.59
				c0,0.219-0.099,0.59-0.296,1.114c-0.346,1.223-0.642,3.473-0.889,6.749c-0.594,7.952-0.889,13.806-0.889,17.563L42.111,58.29
				c0,1.17-0.346,2.439-1.038,3.806c-0.494,1.122-1.037,1.684-1.63,1.684c-0.296,0-0.765-0.612-1.407-1.835
				c-0.889-2.007-1.333-3.499-1.333-4.479c0-0.745,0.15-1.754,0.452-3.025c0.452-1.621,0.853-4.646,1.205-9.076
				c0.652-6.227,0.979-13.791,0.979-22.692c0-5.13-0.173-8.594-0.518-10.393c-0.197-1.578-0.493-2.74-0.887-3.485
				c-0.197-0.482-0.369-0.921-0.517-1.315c0-0.842,0.417-1.263,1.251-1.263C39.256,6.216,39.55,6.216,39.55,6.216z M42.522,29.321
				c4.254,5.002,7.809,8.526,10.662,10.576c2.806,2.102,7.014,4.325,12.625,6.676c1.168,0.4,1.753,0.75,1.753,1.05
				c0,0.245-0.441,0.472-1.324,0.681c-2.464,0.769-5.136,1.152-8.016,1.152c-1.906,0-3.206-0.465-3.903-1.394
				c-2.417-2.396-6.528-7.897-12.336-16.506c-0.604-1.026-0.906-1.761-0.906-2.2c0-0.474,0.177-0.71,0.532-0.71
				C41.75,28.646,42.054,28.871,42.522,29.321z"/>
			<path d="M108.907,12.822c0.741,0.489,1.112,1.25,1.112,2.278c-0.499,24.713-1.134,38.822-1.908,42.324
				c-0.332,1.895-0.912,2.841-1.741,2.841c-0.543,0-1.085-0.495-1.627-1.484c-0.74-1.237-1.109-2.499-1.109-3.785
				c0-0.942,0.171-1.792,0.515-2.548c0.743-2.168,1.345-5.328,1.803-9.479c0.515-3.961,0.772-10.635,0.772-20.021
				c0-4.056-0.405-6.933-1.216-8.631c-0.304-0.612-0.456-1.062-0.456-1.345c0-0.54,0.37-0.811,1.111-0.811
				C107.252,12.161,108.166,12.382,108.907,12.822z M119.169,10.092c0,0,0.851,0.487,2.554,1.46c1.25,0.896,1.876,1.635,1.876,2.219
				c0,0.281-0.099,0.644-0.292,1.085c-0.391,0.684-0.732,1.931-1.023,3.74l-1.852,10.254c-0.351,1.126-1,1.688-1.947,1.688
				c-0.492,0-0.912-0.604-1.263-1.815c0-0.163,0.06-0.528,0.181-1.096c0.241-1.056,0.497-3.288,0.77-6.699
				c0.211-2.437,0.316-4.548,0.316-6.334c0-0.879-0.282-1.317-0.844-1.317c-0.403,0-1.899,0.266-4.487,0.798
				c-1.401,0.354-2.789,0.532-4.166,0.532c-1.208,0-1.812-0.567-1.812-1.702c3.425-0.187,6.563-0.899,9.417-2.138
				c1.038-0.449,1.739-0.675,2.102-0.675C119.013,10.092,119.169,10.092,119.169,10.092z M117.598,19.342
				c0.982,0.35,1.475,0.648,1.475,0.897c0,0.399-0.595,0.722-1.786,0.972c-0.609,0.078-1.125,0.156-1.545,0.234
				c-0.376,0.078-1.335,0.274-2.881,0.587c-0.845,0.156-1.454,0.234-1.828,0.234c-0.76,0-1.394-0.076-1.9-0.229
				c-0.76-0.253-1.14-0.532-1.14-0.836c0-0.456,0.595-0.71,1.786-0.76c1.672-0.328,3.299-0.753,4.879-1.277
				c0.465-0.131,0.72-0.197,0.767-0.197C115.786,18.968,116.51,19.093,117.598,19.342z M116.524,26.822c0,0,0.476,0.23,1.429,0.689
				c0.746,0.502,1.119,0.92,1.119,1.253c0,0.264-0.128,0.396-0.382,0.396c-1.021,0-1.956,0.088-2.806,0.264l-3.954,0.594
				c-0.723,0.134-1.276,0.199-1.659,0.199c-0.88,0-1.481-0.161-1.8-0.481c-0.321-0.321-0.48-0.621-0.48-0.901
				c0-0.401,0.253-0.603,0.76-0.603c1.873-0.188,3.619-0.54,5.238-1.058c0.893-0.234,1.49-0.353,1.788-0.353
				C116.275,26.822,116.524,26.822,116.524,26.822z M122.329,31.89c0,0,0.564,0.249,1.694,0.746c0.873,0.399,1.31,0.847,1.31,1.344
				c0,0.16-0.074,0.398-0.222,0.715c-0.198,0.794-0.321,1.64-0.37,2.539l-0.074,4.84c-0.05,2.382-0.271,4.578-0.665,6.588
				c-0.395,1.957-0.912,3.545-1.552,4.761c-0.542,1.164-1.405,2.275-2.587,3.333c-1.134,0.899-1.847,1.349-2.143,1.349
				c-0.228,0-0.342-0.088-0.342-0.266c1.167-1.735,1.994-3.232,2.482-4.494c0.631-1.576,1.069-3.363,1.313-5.36
				c0.34-1.997,0.511-4.205,0.511-6.623V38.68c0-1.534-0.132-2.776-0.395-3.729c-0.053-0.582-0.236-1.11-0.552-1.588
				c-0.421-0.369-0.631-0.608-0.631-0.714c0-0.507,0.304-0.76,0.912-0.76C121.892,31.89,122.329,31.89,122.329,31.89z
				 M136.159,31.486c1.068,0.702,1.603,1.278,1.603,1.729c0,0.349-0.153,0.773-0.459,1.271c-0.511,1.197-0.766,3.391-0.766,6.582
				c0,3.185,0.049,5.556,0.148,7.115c0.098,1.186,0.147,2.496,0.147,3.932c0,2.542-0.375,4.511-1.122,5.906
				c-0.889,1.495-1.661,2.243-2.315,2.243l-1.604-5.785c0.384,0,0.704-0.226,0.96-0.68c0.384-1.018,0.577-3.962,0.577-8.83
				c0-2.566-0.076-5.926-0.228-10.077c-0.051-0.764-0.152-1.229-0.304-1.393c-0.253-0.218-0.583-0.328-0.988-0.328
				c-0.283,0-1.097,0.082-2.441,0.242c-2.196,0.404-3.753,0.728-4.672,0.969c-0.426,0.162-0.708,0.242-0.85,0.242
				c-0.395,0-0.862-0.204-1.404-0.611c-0.443-0.407-0.665-0.738-0.665-0.993c0-0.18,0.187-0.292,0.563-0.336
				c1.752-0.18,3.817-0.516,6.195-1.008c1.626-0.448,2.909-0.851,3.848-1.209c0.625-0.224,0.969-0.336,1.033-0.336
				C133.768,30.133,134.684,30.585,136.159,31.486z M132.731,44.205c0.983,0.35,1.475,0.648,1.475,0.897
				c0,0.398-0.595,0.722-1.786,0.971c-0.662,0.078-1.221,0.156-1.68,0.234c-0.407,0.078-1.45,0.274-3.13,0.587
				c-0.916,0.156-1.577,0.234-1.984,0.234c-0.76,0-1.394-0.076-1.9-0.228c-0.76-0.254-1.14-0.532-1.14-0.836
				c0-0.456,0.595-0.71,1.786-0.761c1.833-0.327,3.615-0.752,5.346-1.277c0.509-0.131,0.79-0.196,0.84-0.196
				C130.92,43.831,131.644,43.956,132.731,44.205z M132.461,38.26c0.982,0.35,1.475,0.647,1.475,0.897
				c0,0.398-0.595,0.722-1.786,0.971c-0.609,0.078-1.125,0.156-1.545,0.234c-0.376,0.078-1.335,0.274-2.881,0.587
				c-0.845,0.156-1.454,0.234-1.828,0.234c-0.76,0-1.394-0.076-1.9-0.228c-0.76-0.254-1.14-0.532-1.14-0.837
				c0-0.456,0.595-0.709,1.786-0.76c1.672-0.327,3.299-0.753,4.879-1.277c0.465-0.131,0.72-0.196,0.767-0.196
				C130.65,37.886,131.374,38.011,132.461,38.26z M129.083,54.342c1.621,0.093,2.523,0.139,2.708,0.139l1.604,5.785
				c-0.249,0-0.539-0.235-0.87-0.706c-1.243-1.569-2.446-2.962-3.606-4.179c-0.456-0.393-0.684-0.646-0.684-0.765
				c0-0.196,0.098-0.296,0.295-0.296C128.605,54.32,128.789,54.328,129.083,54.342z M135.581,9.413
				c0.948,0.386,1.45,0.826,1.505,1.321l0.135,14.458c0,0.556-0.192,1.222-0.576,1.998c-0.22,0.61-0.521,0.916-0.905,0.916
				c-0.33,0-0.714-0.453-1.152-1.36c-0.384-0.68-0.576-1.218-0.576-1.615c0-0.169,0.046-0.537,0.14-1.104
				c0.046-0.906,0.071-1.756,0.071-2.55c0-2.338-0.125-4.72-0.374-7.144c-0.125-1.275-0.406-2.509-0.842-3.699
				c-0.125-0.298-0.187-0.573-0.187-0.829c0-0.591,0.223-0.887,0.669-0.887C133.769,8.918,134.466,9.084,135.581,9.413z
				 M151.137,8.313c1.175,0.772,1.763,1.406,1.763,1.902c0,0.384-0.169,0.851-0.504,1.398c-0.562,1.317-0.843,3.73-0.843,7.241
				c0,10.751,0.054,18.761,0.163,24.031c0.108,4.005,0.163,8.433,0.163,13.28c0,2.795-0.423,4.961-1.27,6.497
				c-1.005,1.645-1.878,2.468-2.619,2.468l-1.765-6.364c0.45,0,0.824-0.561,1.124-1.681c0.45-2.52,0.675-9.802,0.675-21.845
				c0-5.455-0.084-12.594-0.251-21.416c-0.056-1.625-0.167-2.612-0.333-2.96c-0.279-0.465-0.642-0.697-1.087-0.697
				c-0.361,0-1.396,0.088-3.109,0.262c-2.794,0.438-4.777,0.786-5.949,1.048c-0.541,0.175-0.901,0.262-1.081,0.262
				c-0.434,0-0.949-0.224-1.544-0.673c-0.488-0.447-0.731-0.812-0.731-1.093c0-0.195,0.228-0.317,0.686-0.366
				c2.135-0.195,4.65-0.562,7.547-1.099c1.983-0.487,3.545-0.928,4.688-1.318c0.762-0.244,1.182-0.366,1.258-0.366
				C148.507,6.824,149.515,7.32,151.137,8.313z M147.432,15.785c1.091,0.389,1.638,0.721,1.638,0.997
				c0,0.443-0.662,0.803-1.984,1.08c-0.82,0.092-1.514,0.184-2.082,0.274c-0.504,0.091-1.798,0.318-3.878,0.684
				c-1.136,0.184-1.955,0.274-2.459,0.274c-0.845,0-1.549-0.084-2.111-0.253c-0.845-0.281-1.267-0.592-1.267-0.93
				c0-0.506,0.661-0.787,1.985-0.844c2.294-0.377,4.524-0.868,6.693-1.472c0.637-0.15,0.987-0.227,1.051-0.227
				C145.418,15.37,146.224,15.509,147.432,15.785z M147.634,23.106c0,0,0.571,0.275,1.714,0.826
				c0.895,0.603,1.343,1.104,1.343,1.505c0,0.259-0.181,0.388-0.54,0.388c-1.438,0-2.755,0.086-3.952,0.257l-5.57,0.581
				c-1.019,0.129-1.798,0.193-2.336,0.193c-1.057,0-1.777-0.192-2.16-0.578c-0.384-0.384-0.576-0.745-0.576-1.082
				c0-0.481,0.304-0.722,0.912-0.722c2.738-0.182,5.29-0.523,7.656-1.026c1.307-0.228,2.178-0.342,2.614-0.342
				C147.335,23.106,147.634,23.106,147.634,23.106z M142.528,57.25c2.213,1.011,3.445,1.517,3.696,1.517l1.765,6.364
				c-0.315,0-0.683-0.325-1.103-0.974c-1.577-2.162-3.101-4.08-4.571-5.756c-0.579-0.54-0.867-0.892-0.867-1.054
				c0-0.217,0.107-0.325,0.325-0.325C141.874,57.022,142.125,57.098,142.528,57.25z"/>
		</g>
	</g>
</g>
</svg>
