<?xml version="1.0" encoding="utf-8"?>
<!-- Generator: Adobe Illustrator 16.0.0, SVG Export Plug-In . SVG Version: 6.00 Build 0)  -->
<!DOCTYPE svg PUBLIC "-//W3C//DTD SVG 1.1//EN" "http://www.w3.org/Graphics/SVG/1.1/DTD/svg11.dtd">
<svg version="1.1" id="圖層_1" xmlns="http://www.w3.org/2000/svg" xmlns:xlink="http://www.w3.org/1999/xlink" x="0px" y="0px"
	 width="186.797px" height="78.705px" viewBox="0 0 186.797 78.705" enable-background="new 0 0 186.797 78.705"
	 xml:space="preserve">
<g>
	<path fill-rule="evenodd" clip-rule="evenodd" fill="#8C1C23" d="M28.031,62.677c4.035,3.242,8.295,6.007,13.475,7.157
		c1.705,0.38,3.318,0.644,5.016,0.244c0.652-0.109,1.477,0.385,1.949-0.549c-0.686-0.582-1.297-0.634-1.881,0.085
		c-2.748-0.253-5.455-0.704-8.025-1.767c0.076-0.114,0.152-0.226,0.229-0.341c1.395-0.083,2.627,0.524,3.914,0.904
		c0.947,0.126,1.895,0.252,2.842,0.379c0.027-0.161,0.055-0.321,0.082-0.481c-0.824-0.171-1.65-0.341-2.475-0.511
		c-4.488-1.443-8.723-3.292-11.586-7.501c6.168,4.051,12.551,7.26,20.188,6.308c-0.875,2.011-2.938,0.135-4.254,1.308
		c1.088,0.382,3.066-0.491,2.51,1.824c-0.018,0.067,0.383,0.338,0.598,0.347c2.264,0.11,4.625-0.126,6.414-1.36
		c0.809-0.559,2.484-1.891,1.59-3.716c4.094-1.671,8.076-3.466,11.01-7.018c3.191-3.864,4.309-8.512,5.07-13.229
		C77,30.502,67.986,17.723,53.972,14.303c-2.736-0.667-5.297-2.207-8.27-1.959c-4.271,0.357-8.865,0.336-12.143,3.389
		c-1.99,1.854-4.119,2.75-6.492,3.567c-0.703,0.241-1.025,0.688-0.955-0.583c0.068-1.268-0.82-0.549-1.363-0.269
		c-0.416,0.215-0.816,0.895-1.301,0.292c-0.613-0.763,0.326-1.036,0.674-1.381c1.717-1.707,4.311-2.665,4.596-5.578
		c0.02-0.192,0.541-0.35,0.84-0.502c13.428-6.854,26.777-7.038,39.553,1.311c8.318,5.436,13.463,13.346,15.521,23.204
		c0.432,2.068,0.02,4.257,1.014,6.214c0,0.868,0,1.735,0,2.604c-1.137,1.217-0.043,2.835-1.018,4.156
		c-0.305-3.902,0.605-7.915-1.057-12.397c0.041,4.171,0.24,7.669-0.365,11.147c-2.561,14.701-11.08,24.563-24.988,29.234
		c-12.896,4.331-24.787,1.253-35.344-7.171c-1.08-0.86-2.145-1.742-3.16-2.674c-0.334-0.305-0.898-0.778-0.408-1.275
		c0.426-0.431,0.916-0.089,1.361,0.259c2.1,1.638,4.273,3.181,6.332,4.865c7.357,6.015,15.895,7.323,25.023,6.273
		c-2.23-0.152-4.533,0.003-6.68-0.502c-18.264-4.291-34.08-16.87-31.613-40.365c0,1.333,0,2.666,0,4
		c0.838-5.656,2.244-11.021,5.537-15.839c-4.482,9.442-5.977,19.032-1.838,28.956c3.908,9.373,14.396,17.706,22.225,17.291
		c-4.723-1.862-8.871-3.991-12.191-7.428C27.652,62.988,27.841,62.832,28.031,62.677z M80.855,49.706
		c-1.291,4.506-3.213,8.628-6.09,12.327c-2.898,3.729-6.279,6.895-10.545,9.57C70.392,70.852,79.919,59.743,80.855,49.706z
		 M77.419,36.768c0.033,1.985-0.588,4.034,0.576,5.908C78.556,40.635,78.435,38.656,77.419,36.768z M43.203,71.829
		c2.365,0.45,4.734,0.594,7.455,0.206C47.962,70.398,45.566,72.435,43.203,71.829z"/>
	<path fill-rule="evenodd" clip-rule="evenodd" fill="#8C1C23" d="M125.111,62.677c4.035,3.242,8.293,6.007,13.475,7.157
		c1.703,0.38,3.318,0.644,5.016,0.244c0.652-0.109,1.475,0.385,1.949-0.549c-0.686-0.582-1.299-0.634-1.881,0.085
		c-2.75-0.253-5.455-0.704-8.025-1.767c0.076-0.114,0.152-0.226,0.229-0.341c1.395-0.083,2.627,0.524,3.914,0.904
		c0.947,0.126,1.895,0.252,2.84,0.379c0.029-0.161,0.057-0.321,0.084-0.481c-0.826-0.171-1.65-0.341-2.477-0.511
		c-4.486-1.443-8.721-3.292-11.586-7.501c6.17,4.051,12.553,7.26,20.188,6.308c-0.875,2.011-2.938,0.135-4.252,1.308
		c1.088,0.382,3.066-0.491,2.508,1.824c-0.016,0.067,0.385,0.338,0.598,0.347c2.264,0.11,4.627-0.126,6.414-1.36
		c0.811-0.559,2.484-1.891,1.592-3.716c4.094-1.671,8.076-3.466,11.01-7.018c3.191-3.864,4.309-8.512,5.07-13.229
		c2.305-14.258-6.711-27.037-20.723-30.457c-2.736-0.667-5.299-2.207-8.271-1.959c-4.271,0.357-8.863,0.336-12.141,3.389
		c-1.992,1.854-4.119,2.75-6.494,3.567c-0.701,0.241-1.023,0.688-0.953-0.583c0.068-1.268-0.82-0.549-1.365-0.269
		c-0.414,0.215-0.814,0.895-1.299,0.292c-0.613-0.763,0.326-1.036,0.674-1.381c1.715-1.707,4.311-2.665,4.596-5.578
		c0.02-0.192,0.541-0.35,0.84-0.502c13.428-6.854,26.777-7.038,39.553,1.311c8.316,5.436,13.463,13.346,15.521,23.204
		c0.43,2.068,0.018,4.257,1.012,6.214c0,0.868,0,1.735,0,2.604c-1.137,1.217-0.041,2.835-1.018,4.156
		c-0.303-3.902,0.607-7.915-1.057-12.397c0.041,4.171,0.242,7.669-0.363,11.147c-2.561,14.701-11.08,24.563-24.99,29.234
		c-12.896,4.331-24.785,1.253-35.342-7.171c-1.08-0.86-2.145-1.742-3.162-2.674c-0.332-0.305-0.896-0.778-0.406-1.275
		c0.426-0.431,0.916-0.089,1.361,0.259c2.1,1.638,4.271,3.181,6.332,4.865c7.357,6.015,15.893,7.323,25.023,6.273
		c-2.23-0.152-4.533,0.003-6.682-0.502c-18.264-4.291-34.078-16.87-31.613-40.365c0,1.333,0,2.666,0,4
		c0.84-5.656,2.246-11.021,5.537-15.839c-4.48,9.442-5.975,19.032-1.836,28.956c3.908,9.373,14.396,17.706,22.223,17.291
		c-4.721-1.862-8.869-3.991-12.189-7.428C124.732,62.988,124.919,62.832,125.111,62.677z M177.933,49.706
		c-1.289,4.506-3.211,8.628-6.088,12.327c-2.898,3.729-6.279,6.895-10.545,9.57C167.472,70.852,176.998,59.743,177.933,49.706z
		 M174.498,36.768c0.033,1.985-0.586,4.034,0.578,5.908C175.636,40.635,175.513,38.656,174.498,36.768z M140.283,71.829
		c2.363,0.45,4.732,0.594,7.455,0.206C145.041,70.398,142.644,72.435,140.283,71.829z"/>
	<g>
		<g>
			<path d="M6.656,49.224c0.631,0.037,1.19,0.055,1.676,0.055c1.391,0,2.825-0.063,4.298-0.192c1.719-0.127,3.274-0.191,4.666-0.191
				c2.059,0,4.272,0.511,6.64,1.531c6.95,2.616,12.638,4.275,17.065,4.977c4.529,0.83,12.431,1.436,23.705,1.819
				c1.543,0,2.316,0.19,2.316,0.574c0,0.437-1.39,1.167-4.17,2.189c-6.847,2.529-11.145,3.794-12.895,3.794
				c-1.184,0-3.397-0.68-6.64-2.039c-8.494-4.018-15.47-7.029-20.925-9.038c-2.059-0.708-3.757-1.063-5.096-1.063
				c-2.823,0-5.243,0.35-7.26,1.049c-0.726,0.398-1.331,0.599-1.814,0.599c-0.736,0-1.544-0.392-2.427-1.177
				c-0.98-0.882-1.47-1.69-1.47-2.427c0-0.342,0.34-0.514,1.02-0.514C5.684,49.169,6.121,49.188,6.656,49.224z M20.89,29.055
				c0.853,0.577,1.279,1.107,1.279,1.594c0,0.438-0.293,0.924-0.878,1.458c-1.278,1.069-2.529,2.356-3.754,3.863
				c-1.332,1.508-1.997,2.309-1.997,2.406c0,0.196,0.44,0.539,1.32,1.029c2.16,1.469,3.24,3.258,3.24,5.363
				c0,1.357-0.369,2.58-1.104,3.665c-0.874,1.223-1.564,1.833-2.069,1.833c-0.093,0-0.139-0.203-0.139-0.608
				c0-0.179,0.112-0.473,0.338-0.878c0.09-0.585,0.135-1.193,0.135-1.824c0-2.402-1.05-4.927-3.151-7.571
				c-0.506-0.288-0.759-0.625-0.759-1.009c0-0.101,0.624-1.585,1.874-4.452c0.333-0.703,0.499-1.105,0.499-1.207
				c0-0.354-0.217-0.531-0.65-0.531c-0.153,0-0.84,0.201-2.062,0.604c-1.604,0.336-2.825,0.503-3.664,0.503
				c-0.955,0-1.521-0.094-1.703-0.279c-0.954-0.277-1.43-0.578-1.43-0.903c0-0.333,0.459-0.595,1.377-0.785
				c2.583-0.571,5.337-1.644,8.265-3.214c0.86-0.475,1.348-0.714,1.463-0.714C18.083,27.396,19.273,27.95,20.89,29.055z
				 M14.317,12.697c1.68,0.571,2.774,1.143,3.284,1.713c0.509,0.639,0.763,1.277,0.763,1.915c0,2.449-1.077,3.674-3.23,3.674
				c-0.838,0-1.945-1.045-3.324-3.135c-1.576-2.331-2.363-3.777-2.363-4.34c0-0.369,0.274-0.58,0.823-0.634
				C11.389,11.891,12.738,12.16,14.317,12.697z M59.624,41.534c1.508,0.946,2.263,1.667,2.263,2.162
				c-0.046,0.496-0.756,0.767-2.128,0.811c-4.75,0.082-10.177,0.348-16.282,0.796c-3.454,0.245-8.018,0.715-13.691,1.408
				c-1.11,0.164-1.788,0.245-2.035,0.245c-0.943,0-1.886-0.249-2.827-0.748c-1.122-0.453-1.683-0.884-1.683-1.293
				c0-0.18,0.422-0.361,1.267-0.543c11.399-1.045,20.757-2.028,28.073-2.949c2.56-0.375,4.175-0.564,4.847-0.564
				C57.656,40.858,58.389,41.084,59.624,41.534z M28.917,8.648c0.435,0,0.896,0.567,1.386,1.702
				c0.325,1.027,0.489,1.946,0.489,2.757c0,0.938-0.379,2.22-1.135,3.846c-0.826,1.688-1.582,2.877-2.269,3.563
				c-0.551,0.376-1.032,0.563-1.444,0.563c-0.502,0-1.005-0.29-1.506-0.87c-0.28-0.476-0.419-1.029-0.419-1.663
				c0-0.671,0.173-1.222,0.521-1.65c0.972-1.221,2.188-3.695,3.647-7.423C28.326,8.924,28.568,8.648,28.917,8.648z M30.125,25.403
				c0,0,0.323,0.124,0.97,0.37c1.414,0.491,2.121,1.087,2.121,1.784c0,0.633,0.035,1.294,0.104,1.982
				c0.442,4.214,0.664,7.12,0.664,8.718c0,0.68-0.103,1.22-0.307,1.62c-0.206,0.44-0.452,0.66-0.738,0.66
				c-0.33,0-0.658-0.266-0.985-0.795c-0.492-0.694-0.759-1.429-0.799-2.204l-0.608-4.015c-0.237-2.09-0.49-3.554-0.76-4.39
				c-0.169-0.864-0.608-1.659-1.317-2.384c-0.271-0.194-0.405-0.334-0.405-0.418c0-0.619,0.262-0.93,0.788-0.93
				C29.7,25.403,30.125,25.403,30.125,25.403z M57.149,7.517c0,0,0.733,0.618,2.2,1.854c1.711,1.435,2.567,2.474,2.567,3.115
				c0,1.146-0.656,1.805-1.965,1.976c-1.94,0.458-4.268,1.402-6.983,2.834c-0.218,0-0.325-0.107-0.325-0.325
				c1.598-3.508,2.398-5.591,2.398-6.249c0-0.31-0.357-0.465-1.068-0.465c-4.864,0.118-11.677,1.097-20.439,2.935
				c-0.712,0.118-1.131,0.178-1.257,0.178c-1.343,0-2.327-0.29-2.949-0.873c-0.815-0.63-1.223-1.115-1.223-1.455
				c0-0.339,0.271-0.533,0.811-0.581h1.989c6.621-0.184,14.395-1.042,23.323-2.576c1.067-0.245,1.772-0.367,2.114-0.367
				C56.88,7.517,57.149,7.517,57.149,7.517z M51.843,21.983c0,0,1.021,0.486,3.064,1.46c1.5,0.896,2.25,1.634,2.25,2.218
				c0,0.22-0.142,0.503-0.425,0.848c-0.568,0.534-1.065,1.507-1.489,2.918l-2.696,8.003c-0.421,1.352-1.2,2.027-2.336,2.027
				c-0.589,0-1.095-0.727-1.515-2.18c0-0.123,0.111-0.401,0.333-0.837c0.443-0.807,0.915-2.513,1.416-5.118
				c0.389-1.859,0.583-3.473,0.583-4.838c0-0.878-0.338-1.317-1.014-1.317c-0.887,0-4.174,0.482-9.86,1.446
				c-3.078,0.645-6.129,0.965-9.155,0.965c-1.208,0-1.812-0.566-1.812-1.701c6.568-0.26,12.589-1.246,18.063-2.959
				c1.99-0.623,3.333-0.935,4.03-0.935C51.655,21.983,51.843,21.983,51.843,21.983z M50.859,17.233
				c0.686,0.299,1.029,0.672,1.029,1.118c0,0.322-0.397,0.574-1.19,0.758c-0.918,0.322-2.963,0.736-6.134,1.241
				c-4.799,0.688-7.929,1.033-9.389,1.033c-1.534,0-2.6-0.172-3.199-0.517c-0.599-0.42-0.897-0.782-0.897-1.088
				c0-0.267,0.58-0.422,1.739-0.466c2.732-0.266,5.733-0.711,9.004-1.331c2.276-0.399,4.118-0.82,5.526-1.265
				c0.496-0.178,0.828-0.267,0.993-0.267C48.989,16.451,49.829,16.712,50.859,17.233z M49.815,29.256
				c1.201,0.427,1.803,0.792,1.803,1.096c0,0.487-0.729,0.884-2.183,1.188c-1.32,0.145-2.438,0.289-3.352,0.434
				c-0.813,0.145-2.895,0.506-6.247,1.083c-1.828,0.29-3.148,0.435-3.961,0.435c-0.929,0-1.704-0.093-2.322-0.279
				c-0.929-0.309-1.394-0.65-1.394-1.021c0-0.558,0.728-0.867,2.183-0.929c3.797-0.547,7.489-1.258,11.075-2.134
				c1.055-0.219,1.635-0.328,1.741-0.328C47.601,28.799,48.487,28.952,49.815,29.256z M47.209,35.538c0,0,0.571,0.275,1.714,0.826
				c0.895,0.602,1.343,1.104,1.343,1.505c0,0.307-0.22,0.46-0.657,0.46c-1.751,0-3.356,0.103-4.815,0.308l-6.784,0.691
				c-1.24,0.154-2.188,0.229-2.845,0.229c-1.057,0-1.777-0.191-2.16-0.577c-0.384-0.384-0.576-0.745-0.576-1.082
				c0-0.481,0.304-0.722,0.912-0.722c3.458-0.218,6.682-0.628,9.67-1.229c1.651-0.272,2.751-0.409,3.302-0.409
				C46.911,35.538,47.209,35.538,47.209,35.538z M40.948,12.161c0,0,0.539,0.191,1.616,0.572c1.125,0.524,1.689,1.121,1.689,1.788
				c0,0.592-0.159,1.847-0.477,3.766c-0.445,2.363-0.667,4.947-0.667,7.753v24.81c0,1.258-0.219,2.273-0.656,3.048
				c-0.389,0.823-0.875,1.233-1.458,1.233c-0.485,0-0.947-0.534-1.384-1.603c-0.34-0.874-0.51-1.603-0.51-2.185
				c0-2.794,0.219-5.937,0.659-9.429c0.25-4.655,0.375-11.755,0.375-21.3c0-3.109-0.171-5.198-0.512-6.268
				c-0.342-0.923-0.538-1.385-0.586-1.385c0-0.534,0.245-0.802,0.735-0.802C40.557,12.161,40.948,12.161,40.948,12.161z"/>
			<path d="M131.132,17.752c1.508,0.946,2.263,1.667,2.263,2.162c-0.046,0.496-0.756,0.767-2.128,0.811
				c-4.348,0.146-9.317,0.616-14.907,1.41c-3.163,0.436-7.341,1.268-12.535,2.497c-1.017,0.289-1.637,0.434-1.863,0.434
				c-0.943,0-1.885-0.249-2.827-0.748c-1.122-0.453-1.683-0.884-1.683-1.292c0-0.181,0.422-0.362,1.267-0.544
				c10.464-1.608,19.054-3.12,25.769-4.536c2.35-0.578,3.832-0.869,4.449-0.869C129.165,17.076,129.897,17.303,131.132,17.752z
				 M100.892,54.273c0.287,0,0.768,0.056,1.439,0.165c0.91,0.11,1.485,0.165,1.726,0.165c0.709,0,2.001-0.113,3.876-0.339
				c8.361-1.58,14.214-2.823,17.558-3.727c0.861-0.227,1.469-0.339,1.824-0.339c1.17,0,1.756,0.293,1.756,0.878
				c0,0.541-0.682,0.99-2.044,1.351c-9.593,2.7-14.389,4.08-14.389,4.142c-2.019,0.6-3.837,1.229-5.452,1.891
				c-0.96,0.539-1.691,0.81-2.196,0.81c-0.729,0-1.726-0.54-2.991-1.616c-1.411-1.323-2.115-2.204-2.115-2.645
				C99.884,54.519,100.22,54.273,100.892,54.273z M104.335,27.565c0,0,0.323,0.124,0.97,0.37c1.414,0.491,2.121,1.087,2.121,1.783
				c0,0.65,0.072,1.328,0.215,2.033c0.909,4.321,1.364,7.301,1.364,8.938c0,0.68-0.103,1.221-0.307,1.621
				c-0.206,0.439-0.452,0.659-0.738,0.659c-0.33,0-0.658-0.265-0.985-0.795c-0.492-0.693-0.759-1.428-0.799-2.203l-0.768-4.11
				c-0.299-2.142-0.619-3.641-0.959-4.497c-0.213-0.885-0.768-1.699-1.663-2.441c-0.342-0.199-0.512-0.342-0.512-0.429
				c0-0.618,0.262-0.929,0.788-0.929C103.911,27.565,104.335,27.565,104.335,27.565z M125.243,24.491c0,0,1.021,0.45,3.064,1.348
				c1.5,0.826,2.25,1.509,2.25,2.048c0,0.219-0.142,0.499-0.425,0.842c-0.568,0.531-1.065,1.499-1.489,2.903l-2.696,7.96
				c-0.421,1.352-1.2,2.026-2.336,2.026c-0.589,0-1.095-0.726-1.515-2.179c0-0.123,0.111-0.402,0.333-0.837
				c0.443-0.807,0.915-2.513,1.416-5.118c0.389-1.859,0.583-3.473,0.583-4.838c0-0.811-0.338-1.216-1.014-1.216
				c-0.818,0-3.849,0.503-9.091,1.51c-2.838,0.671-5.652,1.007-8.441,1.007c-1.115,0-1.672-0.523-1.672-1.571
				c6.086-0.258,11.665-1.242,16.736-2.952c1.844-0.621,3.089-0.933,3.735-0.933C125.055,24.491,125.243,24.491,125.243,24.491z
				 M124.535,7.776c1.11,0.743,1.665,1.338,1.665,1.784c0,0.718-0.6,1.278-1.799,1.682c-2.242,0.448-5.971,1.749-11.184,3.9
				c-3.285,1.256-5.658,1.883-7.117,1.883c-0.96,0-1.44-0.153-1.44-0.464c0-0.185,0.448-0.439,1.345-0.764
				c2.162-0.833,4.851-2.222,8.068-4.166c2.742-1.713,4.877-3.379,6.407-4.999c0.527-0.277,0.87-0.417,1.028-0.417
				C122.315,6.216,123.324,6.736,124.535,7.776z M123.215,44.66c1.201,0.427,1.803,0.792,1.803,1.096
				c0,0.487-0.728,0.884-2.183,1.188c-1.294,0.165-2.39,0.329-3.285,0.494c-0.796,0.165-2.836,0.575-6.122,1.233
				c-1.792,0.329-3.086,0.493-3.882,0.493c-0.929,0-1.704-0.093-2.322-0.278c-0.929-0.31-1.394-0.65-1.394-1.021
				c0-0.558,0.727-0.867,2.183-0.93c3.717-0.606,7.331-1.396,10.842-2.367c1.032-0.243,1.6-0.364,1.704-0.364
				C121.001,44.203,121.887,44.355,123.215,44.66z M123.002,31.503c0.983,0.35,1.475,0.648,1.475,0.897
				c0,0.399-0.595,0.723-1.786,0.972c-1.214,0.138-2.242,0.276-3.083,0.415c-0.748,0.138-2.662,0.483-5.744,1.036
				c-1.682,0.276-2.896,0.415-3.643,0.415c-0.76,0-1.394-0.076-1.9-0.229c-0.76-0.253-1.14-0.531-1.14-0.836
				c0-0.456,0.595-0.709,1.786-0.76c3.515-0.507,6.932-1.167,10.25-1.979c0.976-0.203,1.513-0.305,1.611-0.305
				C121.191,31.13,121.915,31.254,123.002,31.503z M120.323,37.531c0,0,0.523,0.253,1.572,0.758c0.82,0.552,1.231,1.012,1.231,1.379
				c0,0.359-0.195,0.539-0.584,0.539c-1.558,0-2.986,0.12-4.285,0.359l-6.037,0.809c-1.104,0.18-1.947,0.269-2.531,0.269
				c-0.969,0-1.629-0.176-1.98-0.528c-0.353-0.353-0.528-0.685-0.528-0.992c0-0.441,0.279-0.662,0.836-0.662
				c3.063-0.258,5.917-0.74,8.563-1.447c1.461-0.321,2.436-0.482,2.923-0.482C120.05,37.531,120.323,37.531,120.323,37.531z
				 M116.918,15.251c1.21,0.533,1.816,1.266,1.816,2.197c0,0.118-0.216,0.649-0.648,1.592c-0.218,0.59-0.542,3.302-0.974,8.137
				l0.118,26.604h-3.395l-0.523-27.313c0-2.152-0.159-4.475-0.477-6.968c-0.046-1.189-0.297-2.152-0.75-2.889
				c-0.364-0.623-0.546-1.021-0.546-1.19c0-0.912,0.493-1.368,1.479-1.368C114.094,14.053,115.394,14.453,116.918,15.251z
				 M143.769,15.819c1.197,0.691,1.796,1.445,1.796,2.262c0,0.579-0.095,1.156-0.283,1.732c-1.038,2.889-1.792,5.055-2.263,6.498
				c-1.792,7.797-3.819,14.295-6.082,19.493c-2.735,6.642-5.847,11.406-9.335,14.294c-1.698,1.732-2.829,2.6-3.395,2.6
				c-0.236,0-0.355-0.118-0.355-0.354c3.55-5.296,6.585-10.869,9.106-16.722c1.947-4.46,3.722-10.033,5.326-16.722
				c1.03-4.181,1.547-8.083,1.547-11.706l-0.414-1.672c0-0.618,0.283-0.929,0.851-0.929
				C141.214,14.594,142.38,15.002,143.769,15.819z M153.578,28.262c1.575,0.938,2.363,1.766,2.363,2.483
				c0,0.39-0.295,0.974-0.883,1.753c-0.737,1.169-1.362,3.377-1.877,6.622c-1.03,7.531-1.951,12.66-2.759,15.386
				c-1.252,4.024-2.871,6.751-4.857,8.181c-1.251,0.908-2.244,1.363-2.98,1.363l-0.325-6.271c0.81,0,1.519-0.547,2.127-1.64
				c1.519-2.188,2.886-6.234,4.102-12.141c0.911-4.594,1.367-8.532,1.367-11.813c0-1.083-0.729-1.626-2.183-1.626
				c-1.115,0-2.841,0.224-5.176,0.669c-2.655,0.536-5.31,1.25-7.964,2.142c-0.69,0.179-1.194,0.268-1.513,0.268
				c-0.769,0-1.618-0.309-2.549-0.926c-0.933-0.562-1.399-1.01-1.399-1.347c0.166-0.281,0.553-0.422,1.162-0.422
				c2.143-0.075,5.223-0.533,9.241-1.373c4.394-0.764,7.769-1.564,10.126-2.405c0.536-0.151,0.884-0.229,1.045-0.229
				C150.97,26.937,151.948,27.379,153.578,28.262z M142.259,57.778l0.325,6.271c-0.586,0-1.145-0.561-1.676-1.681
				c-1.011-1.78-2.422-3.724-4.231-5.832c0-0.218,0.077-0.325,0.232-0.325C139.648,57.256,141.431,57.778,142.259,57.778z"/>
		</g>
	</g>
</g>
</svg>
